<svg xmlns="http://www.w3.org/2000/svg" xmlns:xlink="http://www.w3.org/1999/xlink" width="60" height="60" viewBox="0 0 60 60">
  <defs>
    <clipPath id="clip-Artboard_1">
      <rect width="60" height="60"/>
    </clipPath>
  </defs>
  <g id="Artboard_1" data-name="Artboard – 1" clip-path="url(#clip-Artboard_1)">
    <rect width="60" height="60" fill="#fff"/>
    <path id="Path_202" data-name="Path 202" d="M76.3,217.345a24.79,24.79,0,0,1,.951,4.542.221.221,0,0,1-.432.089c-2.412-8.315-8.958-15.1-19.075-18.483-8.327,16.7-1.581,33.034,15.338,39.79l-10.8-28.168a.252.252,0,0,1,.464-.193l11.692,26.226a.648.648,0,0,0,1.184,0L86.4,217.038a.231.231,0,0,1,.426.177L76.91,243.083c11.824-4.72,14.155-13.108,15.277-17.536s.637-15.339-1.191-19c-6.631,2.218-11.592,6.027-14.694,10.8" transform="translate(-164.41 -98.748) rotate(-38)" fill="#43a944"/>
  </g>
</svg>
