<svg xmlns="http://www.w3.org/2000/svg" width="64" height="62" viewBox="0 0 64 62">
  <g id="Group_65" data-name="Group 65" transform="translate(-1297 -456)">
    <ellipse id="Ellipse_68" data-name="Ellipse 68" cx="32" cy="31" rx="32" ry="31" transform="translate(1297 456)" fill="#d7b69b" opacity="0.4"/>
    <ellipse id="Ellipse_69" data-name="Ellipse 69" cx="25" cy="24" rx="25" ry="24" transform="translate(1304 463)" fill="#cca17f"/>
    <g id="Icon_ionic-ios-mail" data-name="Icon ionic-ios-mail" transform="translate(1311.725 470.078)">
      <path id="Path_118" data-name="Path 118" d="M30.394,10.354l-7.046,7.177a.127.127,0,0,0,0,.183l4.931,5.252a.85.85,0,0,1,0,1.2.854.854,0,0,1-1.2,0l-4.911-5.232a.134.134,0,0,0-.19,0l-1.2,1.218a5.272,5.272,0,0,1-3.759,1.585,5.378,5.378,0,0,1-3.837-1.631l-1.153-1.172a.134.134,0,0,0-.19,0L6.924,24.171a.854.854,0,0,1-1.2,0,.85.85,0,0,1,0-1.2l4.931-5.252a.139.139,0,0,0,0-.183L3.6,10.354a.129.129,0,0,0-.223.092V24.806a2.1,2.1,0,0,0,2.1,2.1h23.05a2.1,2.1,0,0,0,2.1-2.1V10.446A.131.131,0,0,0,30.394,10.354Z" transform="translate(0 -0.167)" fill="#f8faf8"/>
      <path id="Path_119" data-name="Path 119" d="M17.054,19.865a3.56,3.56,0,0,0,2.56-1.074L29.889,8.333a2.058,2.058,0,0,0-1.3-.458H5.522a2.045,2.045,0,0,0-1.3.458L14.5,18.791A3.561,3.561,0,0,0,17.054,19.865Z" transform="translate(-0.058)" fill="#f8faf8"/>
    </g>
  </g>
</svg>
