<svg xmlns="http://www.w3.org/2000/svg" width="17.025" height="11.492" viewBox="0 0 17.025 11.492"><path d="M.072,14.542V5.086q0-.016.049-.312L5.687,9.535.138,14.87a1.391,1.391,0,0,1-.066-.328ZM.811,4.117a.707.707,0,0,1,.279-.049H16.079a.93.93,0,0,1,.3.049L10.792,8.895l-.739.591-1.461,1.2-1.461-1.2-.739-.591ZM.827,15.511l5.6-5.368L8.593,11.9l2.167-1.757,5.6,5.368a.788.788,0,0,1-.279.049H1.09a.744.744,0,0,1-.263-.049ZM11.5,9.535l5.549-4.761a.98.98,0,0,1,.049.312v9.456a1.258,1.258,0,0,1-.049.328Z" transform="translate(-0.072 -4.068)" fill="#dce3dc"/></svg>