<svg id="eco" xmlns="http://www.w3.org/2000/svg" xmlns:xlink="http://www.w3.org/1999/xlink" width="136.372" height="136.371" viewBox="0 0 136.372 136.371">
  <defs>
    <clipPath id="clip-path">
      <rect id="Rectangle_275" data-name="Rectangle 275" width="136.372" height="136.371" fill="none"/>
    </clipPath>
    <linearGradient id="linear-gradient" x1="0.293" y1="0.268" x2="0.702" y2="0.831" gradientUnits="objectBoundingBox">
      <stop offset="0" stop-color="#4fb950"/>
      <stop offset="1" stop-color="#348335"/>
    </linearGradient>
  </defs>
  <g id="Group_23" data-name="Group 23" clip-path="url(#clip-path)">
    <path id="Path_120" data-name="Path 120" d="M130.832-.092-5.139.007C-8.06.007-1.165-2.782-1.165,5.2V131.9a4.36,4.36,0,0,0,7.342,3.185c2.427-2.289,4.834-4.664,7.34-4.943,5.08-.566,11.5,7.009,16.389,5.9,4.972-1.13,7.478-10.742,12.225-12.4,4.8-1.681,12.753,4.266,17.291,2.077C64,123.508,64.29,113.579,68.56,110.89c4.292-2.7,13.37,1.323,17.32-1.83s2.042-12.907,5.62-16.485,13.324-1.661,16.485-5.619-.871-13.028,1.831-17.32c2.689-4.271,12.619-4.565,14.826-9.14,2.189-4.538-3.757-12.488-2.076-17.291,1.66-4.747,11.273-7.254,12.4-12.226,1.113-4.893-6.462-11.309-5.9-16.388.28-2.507,2.655-4.914,4.944-7.342a4.36,4.36,0,0,0-3.185-7.341" transform="translate(1.165 0.092)" fill="url(#linear-gradient)"/>
    <g id="Group_66" data-name="Group 66" transform="translate(14.515 27.913)">
      <g id="Group_69" data-name="Group 69" transform="translate(0 0)">
        <path id="Path_122" data-name="Path 122" d="M50.784,64.937h9.2V84.122H54.286V69.481h-3.5Z" transform="translate(-50.784 -64.774)" fill="#fff"/>
        <path id="Path_123" data-name="Path 123" d="M92.454,67.119q2.239,2.518,2.243,7.226T92.454,81.6a8.093,8.093,0,0,1-6.406,2.544A8.135,8.135,0,0,1,79.6,81.61q-2.232-2.532-2.23-7.265,0-4.709,2.23-7.226A8.159,8.159,0,0,1,86.048,64.6a8.14,8.14,0,0,1,6.406,2.517M83.86,70.006a10.176,10.176,0,0,0-.658,4.339,10.256,10.256,0,0,0,.658,4.35,2.265,2.265,0,0,0,2.188,1.287A2.218,2.218,0,0,0,88.2,78.7a10.506,10.506,0,0,0,.645-4.35,10.423,10.423,0,0,0-.645-4.339,2.222,2.222,0,0,0-2.149-1.272,2.269,2.269,0,0,0-2.188,1.272" transform="translate(-64.455 -64.602)" fill="#fff"/>
        <path id="Path_124" data-name="Path 124" d="M131.94,67.119q2.24,2.518,2.244,7.226T131.94,81.6a9.4,9.4,0,0,1-12.85.013q-2.232-2.532-2.23-7.265,0-4.709,2.23-7.226a9.46,9.46,0,0,1,12.85,0m-8.593,2.887a10.185,10.185,0,0,0-.657,4.339,10.265,10.265,0,0,0,.657,4.35,2.265,2.265,0,0,0,2.188,1.287,2.22,2.22,0,0,0,2.149-1.287,10.526,10.526,0,0,0,.644-4.35,10.443,10.443,0,0,0-.644-4.339,2.224,2.224,0,0,0-2.149-1.272,2.269,2.269,0,0,0-2.188,1.272" transform="translate(-84.757 -64.602)" fill="#fff"/>
        <path id="Path_125" data-name="Path 125" d="M164.833,66.355a6.876,6.876,0,0,1,0,8.511,5.836,5.836,0,0,1-8,0,6.814,6.814,0,0,1,0-8.511,5.837,5.837,0,0,1,8,0m-5.461,2.121a3.705,3.705,0,0,0-.534,2.12,3.767,3.767,0,0,0,.534,2.135,1.747,1.747,0,0,0,2.93,0,3.8,3.8,0,0,0,.53-2.135,3.74,3.74,0,0,0-.53-2.12,1.766,1.766,0,0,0-2.93,0m14.106-3.626H177.2L163.735,84.035h-3.748Zm6.953,9.2a6.859,6.859,0,0,1,0,8.511,5.839,5.839,0,0,1-8,0,6.813,6.813,0,0,1,0-8.511,5.835,5.835,0,0,1,8,0m-5.461,2.119a3.712,3.712,0,0,0-.534,2.122,3.779,3.779,0,0,0,.534,2.136,1.751,1.751,0,0,0,2.93,0,3.771,3.771,0,0,0,.534-2.136,3.7,3.7,0,0,0-.534-2.122,1.766,1.766,0,0,0-2.93,0" transform="translate(-104.539 -64.687)" fill="#fff"/>
      </g>
      <g id="Group_68" data-name="Group 68" transform="translate(2.888 30.485)">
        <path id="Path_126" data-name="Path 126" d="M55.782,132.051V134.3H59.4v2.087h-3.62v2.435h4.095v2.166h-6.8v-11.1h6.8v2.166Z" transform="translate(-52.749 -129.727)" fill="#fff"/>
        <path id="Path_127" data-name="Path 127" d="M72.731,132.316a5.08,5.08,0,0,1,1.984-2.008,5.761,5.761,0,0,1,2.885-.72,5.521,5.521,0,0,1,3.383,1.044,5.009,5.009,0,0,1,1.881,2.846H79.892a2.4,2.4,0,0,0-.941-1.059,2.653,2.653,0,0,0-1.384-.363,2.582,2.582,0,0,0-2.023.869,3.873,3.873,0,0,0,0,4.648,2.582,2.582,0,0,0,2.023.87,2.642,2.642,0,0,0,1.384-.364,2.4,2.4,0,0,0,.941-1.059h2.972a4.974,4.974,0,0,1-1.881,2.838,5.546,5.546,0,0,1-3.383,1.036,5.761,5.761,0,0,1-2.885-.719,5.1,5.1,0,0,1-1.984-2,6.384,6.384,0,0,1,0-5.858" transform="translate(-63.595 -129.557)" fill="#fff"/>
        <path id="Path_128" data-name="Path 128" d="M103.047,140.154a5.439,5.439,0,0,1-2.071-2.032,5.978,5.978,0,0,1,0-5.858,5.453,5.453,0,0,1,2.071-2.024,6.024,6.024,0,0,1,5.739,0,5.344,5.344,0,0,1,2.056,2.024,6.059,6.059,0,0,1-.008,5.858,5.4,5.4,0,0,1-2.055,2.032,6.011,6.011,0,0,1-5.731,0m5-2.625a3.84,3.84,0,0,0,0-4.688,2.734,2.734,0,0,0-2.126-.877,2.765,2.765,0,0,0-2.142.87,3.863,3.863,0,0,0,0,4.7,2.753,2.753,0,0,0,2.142.877,2.722,2.722,0,0,0,2.126-.885" transform="translate(-79.739 -129.514)" fill="#fff"/>
        <g id="Group_67" data-name="Group 67" transform="translate(0 15.456)">
          <path id="Path_129" data-name="Path 129" d="M146.219,135.22a3.256,3.256,0,0,1-1.36,1.288,4.785,4.785,0,0,1-2.277.491h-1.676v3.984h-2.7v-11.1h4.379a4.984,4.984,0,0,1,2.245.459,3.152,3.152,0,0,1,1.375,1.265,3.677,3.677,0,0,1,.459,1.85,3.58,3.58,0,0,1-.442,1.763m-2.688-.735a1.58,1.58,0,0,0,0-2.056,1.615,1.615,0,0,0-1.154-.363h-1.47v2.783h1.47a1.613,1.613,0,0,0,1.154-.364" transform="translate(-138.203 -129.727)" fill="#fff"/>
          <path id="Path_130" data-name="Path 130" d="M166.948,140.983l-2.308-4.189h-.648v4.189h-2.7v-11.1h4.537a5,5,0,0,1,2.237.459,3.163,3.163,0,0,1,1.384,1.256,3.51,3.51,0,0,1,.458,1.779,3.3,3.3,0,0,1-.624,1.976,3.361,3.361,0,0,1-1.842,1.233L170,140.983Zm-2.956-6.1h1.676a1.532,1.532,0,0,0,1.115-.364,1.373,1.373,0,0,0,.371-1.027,1.331,1.331,0,0,0-.371-1,1.534,1.534,0,0,0-1.115-.364h-1.676Z" transform="translate(-151.423 -129.727)" fill="#fff"/>
          <path id="Path_131" data-name="Path 131" d="M187.174,140.154a5.439,5.439,0,0,1-2.071-2.032,5.978,5.978,0,0,1,0-5.858,5.453,5.453,0,0,1,2.071-2.024,6.024,6.024,0,0,1,5.739,0,5.344,5.344,0,0,1,2.056,2.024,6.059,6.059,0,0,1-.008,5.858,5.4,5.4,0,0,1-2.055,2.032,6.011,6.011,0,0,1-5.731,0m5-2.625a3.84,3.84,0,0,0,0-4.688,2.734,2.734,0,0,0-2.126-.877,2.765,2.765,0,0,0-2.142.87,3.863,3.863,0,0,0,0,4.7,2.753,2.753,0,0,0,2.142.877,2.722,2.722,0,0,0,2.126-.885" transform="translate(-164.621 -129.514)" fill="#fff"/>
          <path id="Path_132" data-name="Path 132" d="M221.712,130.581a4.971,4.971,0,0,1,2.032,1.953,6.192,6.192,0,0,1,0,5.794,4.943,4.943,0,0,1-2.039,1.96,6.465,6.465,0,0,1-3.059.7h-4.158v-11.1h4.158a6.456,6.456,0,0,1,3.067.7m-.853,7.225a3.173,3.173,0,0,0,.853-2.372,2.964,2.964,0,0,0-3.241-3.241h-1.28v6.451h1.28a3.262,3.262,0,0,0,2.388-.838" transform="translate(-181.887 -129.727)" fill="#fff"/>
          <path id="Path_133" data-name="Path 133" d="M243.975,129.885v6.64a2.2,2.2,0,0,0,.49,1.534,1.849,1.849,0,0,0,1.439.538,1.9,1.9,0,0,0,1.454-.538,2.154,2.154,0,0,0,.506-1.534v-6.64h2.7v6.624a4.71,4.71,0,0,1-.633,2.514,4.047,4.047,0,0,1-1.7,1.549,5.345,5.345,0,0,1-2.38.521,5.2,5.2,0,0,1-2.347-.514,3.826,3.826,0,0,1-1.637-1.549,4.949,4.949,0,0,1-.6-2.522v-6.624Z" transform="translate(-197.225 -129.727)" fill="#fff"/>
          <path id="Path_134" data-name="Path 134" d="M267.1,132.316a5.076,5.076,0,0,1,1.984-2.008,5.764,5.764,0,0,1,2.886-.72,5.519,5.519,0,0,1,3.383,1.044,5.008,5.008,0,0,1,1.882,2.846h-2.973a2.4,2.4,0,0,0-.941-1.059,2.652,2.652,0,0,0-1.384-.363,2.581,2.581,0,0,0-2.023.869,3.872,3.872,0,0,0,0,4.648,2.582,2.582,0,0,0,2.023.87,2.641,2.641,0,0,0,1.384-.364,2.391,2.391,0,0,0,.941-1.059h2.973a4.972,4.972,0,0,1-1.882,2.838,5.544,5.544,0,0,1-3.383,1.036,5.764,5.764,0,0,1-2.886-.719,5.092,5.092,0,0,1-1.984-2,6.383,6.383,0,0,1,0-5.858" transform="translate(-211.61 -129.557)" fill="#fff"/>
          <path id="Path_135" data-name="Path 135" d="M302.833,129.885v2.166h-2.941v8.933h-2.7V132.05h-2.941v-2.166Z" transform="translate(-227.563 -129.727)" fill="#fff"/>
        </g>
      </g>
    </g>
  </g>
</svg>
