<svg id="Warstwa_1" data-name="Warstwa 1" xmlns="http://www.w3.org/2000/svg" viewBox="0 0 300 300"  height="100"><defs><style>.cls-1{fill:#d7b69b;}.cls-2{fill:#a96f43;}</style></defs><rect class="cls-1" x="5.7" y="226.73" width="288.59" height="6.88"/><rect class="cls-1" x="11.69" y="211.31" width="276.62" height="6.88"/><rect class="cls-1" x="5.7" y="195.88" width="288.59" height="6.88"/><rect class="cls-1" x="11.69" y="180.46" width="276.62" height="6.88"/><rect class="cls-1" x="5.7" y="165.03" width="288.59" height="6.88"/><rect class="cls-1" x="11.69" y="149.61" width="276.62" height="6.88"/><rect class="cls-1" x="5.7" y="134.18" width="288.59" height="6.88"/><rect class="cls-1" x="11.69" y="118.76" width="276.62" height="6.88"/><rect class="cls-1" x="5.7" y="103.33" width="288.59" height="6.88"/><rect class="cls-1" x="11.69" y="87.91" width="276.62" height="6.88"/><rect class="cls-1" x="5.7" y="72.48" width="288.59" height="6.88"/><path class="cls-2" d="M288.31,67.84V57.52H11.69V67.84H22.61V238.77H11.69v10.32H288.31V238.77h-6.37V67.84Zm-99.69,0V238.77H115.94V67.84Zm-155.69,0h72.69V238.77H32.93Zm166,170.93V67.84h72.68V238.77Z"/></svg>