<svg id="Warstwa_1" data-name="Warstwa 1" xmlns="http://www.w3.org/2000/svg" height="100" viewBox="0 0 300 300"><defs><style>.cls-1{fill:#d7b69b;}.cls-2{fill:#a96f43;}</style></defs><rect class="cls-1" x="7.98" y="231.12" width="288.59" height="6.88"/><rect class="cls-1" x="13.97" y="216.85" width="276.62" height="6.88"/><rect class="cls-1" x="7.98" y="202.58" width="288.59" height="6.88"/><rect class="cls-1" x="13.97" y="188.3" width="276.62" height="6.88"/><rect class="cls-1" x="7.98" y="174.03" width="288.59" height="6.88"/><rect class="cls-1" x="13.97" y="159.76" width="276.62" height="6.88"/><rect class="cls-1" x="7.98" y="145.48" width="288.59" height="6.88"/><rect class="cls-1" x="13.97" y="131.21" width="276.62" height="6.88"/><rect class="cls-1" x="7.98" y="116.94" width="288.59" height="6.88"/><rect class="cls-1" x="13.97" y="102.66" width="276.62" height="6.88"/><rect class="cls-1" x="7.98" y="88.39" width="288.59" height="6.88"/><rect class="cls-1" x="13.97" y="74.12" width="276.62" height="6.88"/><rect class="cls-2" x="22.61" y="62.68" width="10.32" height="186.76"/><rect class="cls-2" x="105.62" y="62.68" width="10.32" height="186.76"/><rect class="cls-2" x="188.62" y="62.68" width="10.32" height="186.76"/><rect class="cls-2" x="147.12" y="62.68" width="10.32" height="186.76"/><rect class="cls-2" x="64.11" y="62.68" width="10.32" height="186.76"/><rect class="cls-2" x="230.12" y="62.68" width="10.32" height="186.76"/><rect class="cls-2" x="271.62" y="62.68" width="10.32" height="186.76"/></svg>