<svg xmlns="http://www.w3.org/2000/svg" xmlns:xlink="http://www.w3.org/1999/xlink" width="65.466" height="34.963" viewBox="0 0 65.466 34.963"><defs><clipPath id="a"><rect width="65.466" height="34.963" fill="#f8faf8"/></clipPath></defs><g clip-path="url(#a)"><path d="M32.734,34.963a41.3,41.3,0,0,1-18.941-4.534A35.84,35.84,0,0,1,.29,18.447a1.758,1.758,0,0,1,0-1.933,35.837,35.837,0,0,1,13.5-11.981,41.835,41.835,0,0,1,37.882,0,35.831,35.831,0,0,1,13.5,11.981,1.758,1.758,0,0,1,0,1.932,35.832,35.832,0,0,1-13.5,11.982,41.3,41.3,0,0,1-18.942,4.534M3.892,17.481c6.2,8.642,17.132,13.966,28.842,13.966s22.646-5.324,28.842-13.966C55.38,8.839,44.446,3.516,32.734,3.516S10.089,8.839,3.892,17.481" transform="translate(0 0)" fill="#f8faf8"/><path d="M108.48,47.692A12.991,12.991,0,1,1,121.471,34.7,13.006,13.006,0,0,1,108.48,47.692m0-22.466a9.475,9.475,0,1,0,9.475,9.475,9.486,9.486,0,0,0-9.475-9.475" transform="translate(-75.747 -17.221)" fill="#f8faf8"/><path d="M135.3,69.016a7.478,7.478,0,0,1-5.3-2.193,1.758,1.758,0,0,1,2.487-2.487,3.985,3.985,0,1,0,5.635-5.635,1.758,1.758,0,0,1,2.487-2.486,7.5,7.5,0,0,1-5.3,12.8" transform="translate(-102.71 -44.184)" fill="#f8faf8"/></g></svg>