<svg xmlns="http://www.w3.org/2000/svg" xmlns:xlink="http://www.w3.org/1999/xlink" width="59.553" height="58.467" viewBox="0 0 59.553 58.467"><defs><clipPath id="a"><rect width="59.553" height="58.467" fill="#f8faf8"/></clipPath></defs><g transform="translate(0 0)" clip-path="url(#a)"><path d="M8.787,208.823a1.758,1.758,0,0,1-1.721-1.4l-.973-4.692L1.4,201.757a1.758,1.758,0,0,1-.886-2.965l8.733-8.733a1.758,1.758,0,1,1,2.486,2.486l-6.43,6.43,2.633.546A1.758,1.758,0,0,1,9.3,200.886l.546,2.633,7.182-7.182a1.758,1.758,0,0,1,2.486,2.486l-9.485,9.486a1.758,1.758,0,0,1-1.243.515" transform="translate(0 -150.356)" fill="#f8faf8"/><path d="M202.406,207.325a1.759,1.759,0,0,1-1.244-.515l-9.485-9.485a1.758,1.758,0,1,1,2.487-2.486l7.182,7.182.546-2.633a1.758,1.758,0,0,1,1.364-1.364l2.633-.546-6.821-6.821a1.758,1.758,0,1,1,2.487-2.486l9.124,9.124a1.758,1.758,0,0,1-.886,2.965l-4.692.973-.973,4.692a1.757,1.757,0,0,1-1.721,1.4" transform="translate(-151.64 -148.858)" fill="#f8faf8"/><path d="M45.364,51.343A25.672,25.672,0,1,1,71.036,25.671,25.7,25.7,0,0,1,45.364,51.343m0-47.827A22.156,22.156,0,1,0,67.52,25.671,22.181,22.181,0,0,0,45.364,3.515" transform="translate(-15.622 0.001)" fill="#f8faf8"/><path d="M97.235,76.1a1.758,1.758,0,0,1-.788-.186L89.58,72.467l-6.867,3.444a1.758,1.758,0,0,1-2.526-1.836l1.153-7.595-5.4-5.467a1.758,1.758,0,0,1,.965-2.97l7.579-1.25,3.531-6.822a1.758,1.758,0,0,1,3.123,0l3.531,6.822,7.58,1.25a1.758,1.758,0,0,1,.965,2.97l-5.4,5.467,1.153,7.595A1.758,1.758,0,0,1,97.235,76.1M89.58,68.742a1.76,1.76,0,0,1,.788.186l4.618,2.316-.776-5.108a1.758,1.758,0,0,1,.487-1.5l3.63-3.677-5.1-.841a1.759,1.759,0,0,1-1.275-.927L89.58,54.6l-2.375,4.589a1.758,1.758,0,0,1-1.275.927l-5.1.841,3.63,3.677a1.759,1.759,0,0,1,.487,1.5l-.776,5.108,4.618-2.316a1.76,1.76,0,0,1,.788-.186" transform="translate(-59.84 -38.886)" fill="#f8faf8"/></g></svg>