<svg xmlns="http://www.w3.org/2000/svg" xmlns:xlink="http://www.w3.org/1999/xlink" width="41.795" height="60.135" viewBox="0 0 41.795 60.135"><defs><clipPath id="a"><rect width="41.795" height="60.135" fill="#f8faf8"/></clipPath></defs><g transform="translate(0 0)" clip-path="url(#a)"><path d="M94.332,143.033a1.758,1.758,0,0,1-1.758-1.758V106.262a1.758,1.758,0,1,1,3.516,0v35.012a1.758,1.758,0,0,1-1.758,1.758" transform="translate(-73.435 -82.898)" fill="#f8faf8"/><path d="M20.9,46.728C9.375,46.728,0,38.921,0,29.324c0-4.058,3.261-9.992,9.97-18.141C14.757,5.37,19.463.7,19.661.508a1.758,1.758,0,0,1,2.472,0c.2.2,4.9,4.862,9.691,10.676,6.709,8.149,9.97,14.083,9.97,18.141,0,9.6-9.375,17.4-20.9,17.4m0-42.474C15.093,10.2,3.516,23.308,3.516,29.324c0,7.657,7.8,13.887,17.381,13.887s17.381-6.23,17.381-13.887C38.278,23.308,26.7,10.2,20.9,4.254" transform="translate(0 0)" fill="#f8faf8"/><path d="M57.628,137.858a1.753,1.753,0,0,1-1.243-.515l-9.53-9.53a1.758,1.758,0,0,1,2.487-2.486l9.53,9.53a1.758,1.758,0,0,1-1.243,3" transform="translate(-36.76 -99.008)" fill="#f8faf8"/><path d="M94.332,137.858a1.758,1.758,0,0,1-1.243-3l9.53-9.53a1.758,1.758,0,0,1,2.487,2.486l-9.53,9.53a1.753,1.753,0,0,1-1.243.515" transform="translate(-73.435 -99.007)" fill="#f8faf8"/></g></svg>