<svg xmlns="http://www.w3.org/2000/svg" width="84.437" height="55.686" viewBox="0 0 84.437 55.686">
  <g id="Group_72" data-name="Group 72" transform="translate(-944.282 -2880.313)">
    <path id="Union_8" data-name="Union 8" d="M19.74-17572h0ZM18-17576h0Zm1.742-4h0ZM18-17584h0Zm1.742-4h0ZM18-17592h0Zm1.742-4h0ZM18-17600h0Zm1.742-4h0ZM18-17608h0Zm1.742-4h0ZM18-17616h0Z" transform="translate(926.284 20501.813)" fill="none" stroke="#d7b69b" stroke-width="2"/>
    <path id="Union_5" data-name="Union 5" d="M95.132-17562H71.042v0H45.855v0H22.777v0h0v-52.686h0v0H45.855v0H71.042v0h24.09v0h0V-17562h0v0Zm0,0v-52.686H71.042V-17562Zm-24.09,0v-52.686H45.855V-17562Zm-25.187,0v-52.686H22.777V-17562Z" transform="translate(928.025 20496.5)" fill="none" stroke="#a96f43" stroke-width="3"/>
  </g>
</svg>
