<svg xmlns="http://www.w3.org/2000/svg" width="15.25" height="15.25" viewBox="0 0 15.25 15.25">
  <path id="Icon_ionic-ios-checkmark-circle" data-name="Icon ionic-ios-checkmark-circle" d="M11,3.375A7.625,7.625,0,1,0,18.625,11,7.624,7.624,0,0,0,11,3.375Zm3.9,5.517L10,13.815h0a.662.662,0,0,1-.425.2.642.642,0,0,1-.429-.209L7.092,11.755a.146.146,0,0,1,0-.209l.653-.653a.142.142,0,0,1,.205,0l1.628,1.628L14.05,8.016a.145.145,0,0,1,.1-.044h0a.133.133,0,0,1,.1.044l.642.664A.145.145,0,0,1,14.9,8.892Z" transform="translate(-3.375 -3.375)" fill="#d7b69b"/>
</svg>
