<svg xmlns="http://www.w3.org/2000/svg" width="269.432" height="42.902" viewBox="0 0 269.432 42.902"><g transform="translate(-55.568 -22.098)"><path d="M68.267,212.314a15.786,15.786,0,0,1,.605,2.892.141.141,0,0,1-.275.057c-1.536-5.295-5.7-9.614-12.146-11.77-5.3,10.636-1.007,21.035,9.767,25.337l-6.875-17.937a.16.16,0,0,1,.3-.123l7.445,16.7a.413.413,0,0,0,.754,0L74.7,212.118a.147.147,0,0,1,.272.112L68.655,228.7c7.53-3.006.912-2.563,8.148-8.479,4.484-5.321,1.985-12.455.821-14.789a17.459,17.459,0,0,0-9.357,6.879" transform="translate(-112.412 -89.389) rotate(-38)" fill="#6ed86f"/><text transform="translate(79 56)" fill="#6ed86f" font-size="26" font-family="NunitoSans-ExtraBold, Nunito Sans" font-weight="800"><tspan x="0" y="0">BGO</tspan><tspan y="0" fill="#344334" font-family="NunitoSans-Black, Nunito Sans"> </tspan><tspan y="0" fill="#dce3dc" font-family="NunitoSans-Regular, Nunito Sans" font-weight="400">TRADE WOOD</tspan></text></g></svg>