<svg xmlns="http://www.w3.org/2000/svg" xmlns:xlink="http://www.w3.org/1999/xlink" width="241.938" height="159.065" viewBox="0 0 241.938 159.065">
  <defs>
    <clipPath id="clip-path">
      <rect id="Rectangle_277" data-name="Rectangle 277" width="184.586" height="16.2" fill="none"/>
    </clipPath>
    <filter id="Path_136" x="0" y="0" width="241.938" height="159.065" filterUnits="userSpaceOnUse">
      <feOffset dy="14" input="SourceAlpha"/>
      <feGaussianBlur stdDeviation="12" result="blur"/>
      <feFlood flood-color="#286529" flood-opacity="0.251"/>
      <feComposite operator="in" in2="blur"/>
      <feComposite in="SourceGraphic"/>
    </filter>
  </defs>
  <g id="Group_90" data-name="Group 90" transform="translate(-1043.579 -1908.436)">
    <g id="Group_28" data-name="Group 28" transform="translate(1072.307 1930.227)">
      <g id="Group_27" data-name="Group 27" transform="translate(0 0)" clip-path="url(#clip-path)">
        <path id="Path_147" data-name="Path 147" d="M184.586,16.2H0S3.948,0,12.561,0H172.024c6.645,0,12.561,16.2,12.561,16.2" transform="translate(0 0)" fill="#078c19"/>
      </g>
    </g>
    <g id="Group_26" data-name="Group 26" transform="translate(1079.579 1930.436)">
      <g id="Group_29" data-name="Group 29" transform="translate(0 0)">
        <g transform="matrix(1, 0, 0, 1, -36, -22)" filter="url(#Path_136)">
          <path id="Path_136-2" data-name="Path 136" d="M.07,19.376c.7,3.1,6.7,4.664,7.735,7.624,1.048,3-2.661,7.954-1.3,10.784,1.377,2.853,7.569,3.036,9.246,5.7s-.825,8.338,1.142,10.8,8.049,1.274,10.28,3.505,1.036,8.309,3.5,10.281,8.124-.544,10.8,1.142,2.847,7.869,5.7,9.246c2.831,1.365,7.788-2.343,10.784-1.295,2.96,1.036,4.524,7.031,7.624,7.736,3.052.694,7.054-4.03,10.221-3.677,3.1.345,5.961,5.842,9.157,5.842s6.054-5.5,9.156-5.842c3.168-.353,7.169,4.371,10.22,3.677,3.1-.7,4.664-6.7,7.624-7.735,3-1.048,7.954,2.661,10.784,1.3,2.853-1.376,3.036-7.569,5.7-9.245s8.338.825,10.8-1.142,1.274-8.049,3.505-10.28,8.309-1.036,10.281-3.5-.544-8.124,1.142-10.8,7.869-2.846,9.246-5.7c1.366-2.83-2.343-7.788-1.3-10.784,1.036-2.961,7.031-4.524,7.736-7.625.694-3.051-4.03-7.053-3.678-10.22a4.869,4.869,0,0,1,1.06-2.291A4.361,4.361,0,0,0,163.646,0H6.294a4.36,4.36,0,0,0-3.6,6.866,4.87,4.87,0,0,1,1.058,2.29C4.1,12.323-.624,16.325.07,19.376" transform="translate(36 22)" fill="#2bbd39"/>
        </g>
        <path id="Path_137" data-name="Path 137" d="M202.2,38.812v2.466h3.977v2.293H202.2v2.675h4.5v2.38H199.23V36.433H206.7v2.38Z" transform="translate(-131.909 -17.875)" fill="#fff"/>
        <path id="Path_138" data-name="Path 138" d="M237.421,38.845a5.588,5.588,0,0,1,2.18-2.206,6.33,6.33,0,0,1,3.17-.79A6.064,6.064,0,0,1,246.487,37a5.506,5.506,0,0,1,2.067,3.126h-3.265a2.638,2.638,0,0,0-1.034-1.163,2.906,2.906,0,0,0-1.52-.4,2.838,2.838,0,0,0-2.223.955,4.257,4.257,0,0,0,0,5.106,2.837,2.837,0,0,0,2.223.955,2.906,2.906,0,0,0,1.52-.4,2.637,2.637,0,0,0,1.034-1.164h3.265a5.464,5.464,0,0,1-2.067,3.118,6.1,6.1,0,0,1-3.717,1.138,6.328,6.328,0,0,1-3.17-.791,5.6,5.6,0,0,1-2.18-2.2,7.013,7.013,0,0,1,0-6.435" transform="translate(-160.426 -17.43)" fill="#fff"/>
        <path id="Path_139" data-name="Path 139" d="M295.436,47.392a5.975,5.975,0,0,1-2.275-2.232,6.567,6.567,0,0,1,0-6.435,6,6,0,0,1,2.275-2.223,6.621,6.621,0,0,1,6.3,0A5.876,5.876,0,0,1,304,38.725a6.658,6.658,0,0,1-.009,6.435,5.926,5.926,0,0,1-2.258,2.232,6.6,6.6,0,0,1-6.3,0m5.488-2.883a4.219,4.219,0,0,0,0-5.15,3.005,3.005,0,0,0-2.336-.964,3.04,3.04,0,0,0-2.353.955,4.244,4.244,0,0,0,0,5.167,3.025,3.025,0,0,0,2.353.964,2.991,2.991,0,0,0,2.336-.973" transform="translate(-202.87 -17.318)" fill="#fff"/>
        <g id="Group_30" data-name="Group 30" transform="translate(0 5)">
          <path id="Path_140" data-name="Path 140" d="M106.944,115.658a3.579,3.579,0,0,1-1.494,1.416,5.262,5.262,0,0,1-2.5.538h-1.841v4.377h-2.97V109.8h4.811a5.481,5.481,0,0,1,2.467.5,3.471,3.471,0,0,1,1.511,1.39,4.043,4.043,0,0,1,.5,2.032,3.931,3.931,0,0,1-.486,1.936m-2.953-.807a1.735,1.735,0,0,0,0-2.258,1.772,1.772,0,0,0-1.268-.4h-1.615v3.057h1.615a1.771,1.771,0,0,0,1.268-.4" transform="translate(-54.846 -73.801)" fill="#fff"/>
          <path id="Path_141" data-name="Path 141" d="M149.951,121.989l-2.536-4.6H146.7v4.6h-2.97V109.8h4.985a5.494,5.494,0,0,1,2.458.5,3.476,3.476,0,0,1,1.52,1.381,3.859,3.859,0,0,1,.5,1.954,3.628,3.628,0,0,1-.686,2.171,3.691,3.691,0,0,1-2.023,1.355l2.814,4.828Zm-3.248-6.7h1.841a1.684,1.684,0,0,0,1.225-.4,1.507,1.507,0,0,0,.408-1.129,1.462,1.462,0,0,0-.408-1.094,1.687,1.687,0,0,0-1.225-.4H146.7Z" transform="translate(-89.603 -73.801)" fill="#fff"/>
          <path id="Path_142" data-name="Path 142" d="M192.372,120.755a5.972,5.972,0,0,1-2.275-2.232,6.567,6.567,0,0,1,0-6.435,6,6,0,0,1,2.275-2.223,6.62,6.62,0,0,1,6.305,0,5.874,5.874,0,0,1,2.258,2.223,6.658,6.658,0,0,1-.009,6.435,5.925,5.925,0,0,1-2.258,2.232,6.6,6.6,0,0,1-6.3,0m5.488-2.883a4.218,4.218,0,0,0,0-5.15,3,3,0,0,0-2.336-.964,3.04,3.04,0,0,0-2.353.955,4.244,4.244,0,0,0,0,5.167,3.025,3.025,0,0,0,2.353.964,2.99,2.99,0,0,0,2.336-.973" transform="translate(-124.305 -73.244)" fill="#fff"/>
          <path id="Path_143" data-name="Path 143" d="M256.744,110.562a5.463,5.463,0,0,1,2.232,2.145,6.8,6.8,0,0,1,0,6.365,5.426,5.426,0,0,1-2.24,2.154,7.105,7.105,0,0,1-3.361.764h-4.568V109.8h4.568a7.092,7.092,0,0,1,3.369.764m-.937,7.937a3.484,3.484,0,0,0,.937-2.605,3.255,3.255,0,0,0-3.56-3.56h-1.407v7.086h1.407a3.584,3.584,0,0,0,2.623-.921" transform="translate(-169.702 -73.802)" fill="#fff"/>
          <path id="Path_144" data-name="Path 144" d="M304.678,109.8v7.295a2.411,2.411,0,0,0,.539,1.685,2.029,2.029,0,0,0,1.58.591,2.087,2.087,0,0,0,1.6-.591,2.366,2.366,0,0,0,.556-1.685V109.8h2.97v7.277a5.175,5.175,0,0,1-.7,2.762,4.448,4.448,0,0,1-1.867,1.7,5.875,5.875,0,0,1-2.614.573,5.722,5.722,0,0,1-2.579-.564,4.2,4.2,0,0,1-1.8-1.7,5.437,5.437,0,0,1-.66-2.771V109.8Z" transform="translate(-210.029 -73.801)" fill="#fff"/>
          <path id="Path_145" data-name="Path 145" d="M352.1,112.209A5.585,5.585,0,0,1,354.281,110a6.33,6.33,0,0,1,3.17-.79,6.065,6.065,0,0,1,3.717,1.146,5.506,5.506,0,0,1,2.067,3.126h-3.265a2.639,2.639,0,0,0-1.034-1.164,2.908,2.908,0,0,0-1.52-.4,2.837,2.837,0,0,0-2.223.955,4.256,4.256,0,0,0,0,5.106,2.836,2.836,0,0,0,2.223.955,2.905,2.905,0,0,0,1.52-.4,2.636,2.636,0,0,0,1.034-1.164h3.265a5.464,5.464,0,0,1-2.067,3.118,6.1,6.1,0,0,1-3.717,1.138,6.328,6.328,0,0,1-3.17-.791,5.6,5.6,0,0,1-2.179-2.2,7.012,7.012,0,0,1,0-6.435" transform="translate(-247.848 -73.355)" fill="#fff"/>
          <path id="Path_146" data-name="Path 146" d="M415.773,109.8v2.38h-3.23v9.813h-2.97v-9.813h-3.231V109.8Z" transform="translate(-289.791 -73.801)" fill="#fff"/>
        </g>
        <line id="Line_41" data-name="Line 41" x2="52.767" transform="translate(58.154 65.236)" fill="none" stroke="#fff" stroke-linecap="round" stroke-miterlimit="10" stroke-width="3"/>
        <line id="Line_42" data-name="Line 42" x2="18.764" transform="translate(31.292 25.749)" fill="none" stroke="#fff" stroke-linecap="round" stroke-miterlimit="10" stroke-width="3"/>
        <line id="Line_43" data-name="Line 43" x2="18.764" transform="translate(117.454 25.749)" fill="none" stroke="#fff" stroke-linecap="round" stroke-miterlimit="10" stroke-width="3"/>
      </g>
    </g>
  </g>
</svg>
