<svg xmlns="http://www.w3.org/2000/svg" width="70.008" height="52.824" viewBox="0 0 70.008 52.824"><g transform="translate(-238.301 -3081.718)"><line y2="66.779" transform="translate(239.744 3126.215) rotate(-90)" fill="none" stroke="#d7b69b" stroke-width="2"/><line y2="70.008" transform="translate(238.301 3122.898) rotate(-90)" fill="none" stroke="#d7b69b" stroke-width="2"/><line y2="70.008" transform="translate(238.301 3129.531) rotate(-90)" fill="none" stroke="#d7b69b" stroke-width="2"/><line y2="66.779" transform="translate(239.744 3119.582) rotate(-90)" fill="none" stroke="#d7b69b" stroke-width="2"/><line y2="70.008" transform="translate(238.301 3116.265) rotate(-90)" fill="none" stroke="#d7b69b" stroke-width="2"/><line y2="66.779" transform="translate(239.744 3112.948) rotate(-90)" fill="none" stroke="#d7b69b" stroke-width="2"/><line y2="66.779" transform="translate(239.744 3099.682) rotate(-90)" fill="none" stroke="#d7b69b" stroke-width="2"/><line y2="70.008" transform="translate(238.301 3109.632) rotate(-90)" fill="none" stroke="#d7b69b" stroke-width="2"/><line y2="70.008" transform="translate(238.301 3096.365) rotate(-90)" fill="none" stroke="#d7b69b" stroke-width="2"/><line y2="66.779" transform="translate(239.744 3106.315) rotate(-90)" fill="none" stroke="#d7b69b" stroke-width="2"/><line y2="66.779" transform="translate(239.744 3093.049) rotate(-90)" fill="none" stroke="#d7b69b" stroke-width="2"/><line y2="66.779" transform="translate(239.744 3086.416) rotate(-90)" fill="none" stroke="#d7b69b" stroke-width="2"/><line y2="70.008" transform="translate(238.301 3102.999) rotate(-90)" fill="none" stroke="#d7b69b" stroke-width="2"/><line y2="70.008" transform="translate(238.301 3089.732) rotate(-90)" fill="none" stroke="#d7b69b" stroke-width="2"/><line x2="52.824" transform="translate(243.706 3134.542) rotate(-90)" fill="none" stroke="#a96f43" stroke-width="3"/><line y1="52.531" transform="translate(263.669 3081.718)" fill="none" stroke="#a96f43" stroke-width="3"/><line y1="52.531" transform="translate(253.72 3081.718)" fill="none" stroke="#a96f43" stroke-width="3"/><line y1="52.531" transform="translate(273.619 3081.718)" fill="none" stroke="#a96f43" stroke-width="3"/><line y1="52.531" transform="translate(293.519 3081.718)" fill="none" stroke="#a96f43" stroke-width="3"/><line y1="52.531" transform="translate(283.725 3081.718)" fill="none" stroke="#a96f43" stroke-width="3"/><line y1="52.531" transform="translate(303.699 3081.718)" fill="none" stroke="#a96f43" stroke-width="3"/></g></svg>