<svg xmlns="http://www.w3.org/2000/svg" width="42" height="42" viewBox="0 0 42 42"><g transform="translate(-813 -2753)"><rect width="42" height="42" rx="5" transform="translate(813 2753)" fill="#344334"/><g transform="translate(-75 -27)"><path d="M7443,3188v-1h36v1Zm0-4v-1h36v1Zm0-4v-1h36v1Zm0-4v-1h36v1Zm0-4v-1h36v1Zm0-4v-1h36v1Z" transform="translate(-6552 -377)" fill="#9aa19a"/><path d="M7470,3193v-26h3v26Zm-9,0v-26h3v26Zm-9,0v-26h3v26Zm-9,0v-26h3v26Z" transform="translate(-6549 -379)" fill="#fff"/></g></g></svg>