<svg xmlns="http://www.w3.org/2000/svg" width="70.007" height="46.688" viewBox="0 0 70.007 46.688"><g transform="translate(-0.002 0.414)"><path d="M1.445,36.482h0ZM0,33.166H0Zm1.444-3.316h0ZM0,26.533H0Zm1.444-3.316h0ZM0,19.9H0Zm1.444-3.317h0ZM0,13.266H0ZM1.445,9.95h0ZM0,6.633H0ZM1.445,3.317h0ZM0,0H0Z" transform="translate(0 4.405)" fill="none" stroke="#d7b69b" stroke-width="2"/><path d="M63.957,44.774H43.982v0H23.1v0H3.964v0h0V1.086h0v0H23.1v0H43.982v0H63.957v0h0V44.774h0v0Zm0,0V1.086H43.982V44.774Zm-19.975,0V1.086H23.1V44.774Zm-20.885,0V1.086H3.964V44.774Z" transform="translate(1.444)" fill="none" stroke="#a96f43" stroke-width="3"/></g></svg>