<svg xmlns="http://www.w3.org/2000/svg" xmlns:xlink="http://www.w3.org/1999/xlink" width="57.897" height="55.203" viewBox="0 0 57.897 55.203"><defs><clipPath id="a"><rect width="57.897" height="55.203" fill="#f8faf8"/></clipPath></defs><g clip-path="url(#a)"><path d="M40.634,55.2a27.633,27.633,0,0,1-27.6-27.6,1.758,1.758,0,1,1,3.516,0A24.085,24.085,0,1,0,40.634,3.516a1.758,1.758,0,0,1,0-3.516,27.6,27.6,0,0,1,0,55.2" transform="translate(-10.338)" fill="#f8faf8"/><path d="M4.651,98.154,0,104.926H9.3Z" transform="translate(0 -77.861)" fill="#f8faf8"/><path d="M82.713,99.824a1.768,1.768,0,0,1-.343-.033,1.733,1.733,0,0,1-.922-.481L69.323,87.183A9.183,9.183,0,0,1,82.31,74.2l.393.393L83.1,74.2A9.183,9.183,0,0,1,96.083,87.183L83.957,99.309a1.754,1.754,0,0,1-1.244.515m-6.9-24.8A5.664,5.664,0,0,0,71.809,84.7L82.7,95.59,93.6,84.7a5.667,5.667,0,1,0-8.014-8.014l-1.636,1.636a1.758,1.758,0,0,1-2.486,0l-1.636-1.636a5.649,5.649,0,0,0-4.007-1.657" transform="translate(-52.861 -56.726)" fill="#f8faf8"/></g></svg>